# xmcd
#
# Track frame offsets:
#	150
#	18214
#	35017
#	47377
#	61876
#	81204
#	98065
#	129586
#	144061
#	160533
#	180847
#	194262
#	212233
#	230006
#
# Disc length: 3255 seconds
#
# Revision: 2
# Processed by: cddbd v1.5.2PL0 Copyright (c) Steve Scherf et al.
# Submitted via: EasyCDDAExtractor 2010.6.0.0
#
DISCID=a90cb50e
DTITLE=Various Artist - Emozioni In Musica-Vattene Amore
DYEAR=1998
DGENRE=Italiani
TTITLE0=Mietta E Amodeo Minghi - Vattene Amore 1990
TTITLE1=Paolo Conte - L'ultima Donna 1981
TTITLE2=I Corvi  - C'e Un Uomo Che Piange 1977
TTITLE3=Nicola Di Bari - Il Cuore E Uno Zingaro 1971
TTITLE4=Formula Tre - Io Ritorno Solo 1990
TTITLE5=Bruno Martino - E La Chiamano Estate 1970
TTITLE6=Amedeo Minghi - Revederci E Grazie 1989
TTITLE7=Don Backy - Nostalgia 1970
TTITLE8=Luciano Rossi - Ammazzate Ho 1975
TTITLE9=Gianni Morandi - Mi Manchi 1984
TTITLE10=Mina - Non Illuderti 1964
TTITLE11=Antonello Venditti - Stupida Signora 1973
TTITLE12=Danilo Amerio - Buttami Via 1994
TTITLE13=Ornella Vanoni - La Musica E Finita 1970
EXTD=
EXTT0=
EXTT1=
EXTT2=
EXTT3=
EXTT4=
EXTT5=
EXTT6=
EXTT7=
EXTT8=
EXTT9=
EXTT10=
EXTT11=
EXTT12=
EXTT13=
PLAYORDER=
